<svg width="48" height="49" viewBox="0 0 48 49" fill="none" xmlns="http://www.w3.org/2000/svg">
<rect y="0.882629" width="48" height="48" rx="10" fill="url(#paint0_linear_159044_91)"/>
<rect y="0.882629" width="48" height="48" rx="10" fill="white"/>
<path d="M18.8181 38.2399L19.3088 35.1226L18.2156 35.0973H12.9955L16.6232 12.095C16.634 12.0247 16.6697 11.9607 16.7238 11.9145C16.7779 11.8684 16.8468 11.8432 16.9179 11.8435H25.7198C28.6419 11.8435 30.6584 12.4516 31.7113 13.6518C32.2048 14.2148 32.5192 14.8032 32.6712 15.4506C32.8307 16.13 32.8335 16.9417 32.6778 17.9317L32.6665 18.0039V18.6383L33.1601 18.9179C33.5369 19.1088 33.8756 19.367 34.1595 19.6799C34.5817 20.1612 34.8548 20.7731 34.9702 21.4984C35.0894 22.2444 35.05 23.1321 34.8548 24.1371C34.6296 25.2932 34.2655 26.3001 33.7738 27.1239C33.34 27.862 32.7566 28.5013 32.0613 29.0007C31.4082 29.4642 30.6321 29.8161 29.7548 30.0413C28.9046 30.2628 27.9353 30.3745 26.8721 30.3745H26.1871C25.6972 30.3745 25.2215 30.5509 24.848 30.8671C24.4751 31.1867 24.2277 31.6283 24.1499 32.1133L24.0983 32.3938L23.2312 37.888L23.1918 38.0897C23.1815 38.1535 23.1637 38.1854 23.1374 38.207C23.1119 38.2278 23.0802 38.2394 23.0473 38.2399H18.8181Z" fill="#253B80"/>
<path d="M33.6275 18.0771C33.6012 18.2451 33.5712 18.4168 33.5374 18.5932C32.3766 24.5528 28.4054 26.6116 23.3335 26.6116H20.7512C20.1309 26.6116 19.6082 27.062 19.5116 27.6738L18.1894 36.0591L17.815 38.4359C17.8001 38.5302 17.8058 38.6266 17.8317 38.7185C17.8576 38.8104 17.9031 38.8955 17.9651 38.9681C18.0271 39.0407 18.1041 39.099 18.1907 39.139C18.2774 39.179 18.3717 39.1997 18.4672 39.1998H23.0473C23.5897 39.1998 24.0505 38.8057 24.1359 38.2708L24.1809 38.0381L25.0433 32.5655L25.0986 32.2652C25.1831 31.7285 25.6448 31.3344 26.1871 31.3344H26.8721C31.3097 31.3344 34.7835 29.5327 35.7988 24.3191C36.223 22.1412 36.0034 20.3226 34.8811 19.0436C34.5254 18.648 34.1006 18.3204 33.6275 18.0771V18.0771Z" fill="#179BD7"/>
<path d="M32.4132 17.5929C32.0426 17.4857 31.6656 17.402 31.2844 17.3424C30.5312 17.2266 29.7699 17.1711 29.0079 17.1763H22.109C21.8465 17.1761 21.5925 17.2698 21.393 17.4405C21.1936 17.6112 21.0618 17.8477 21.0214 18.1071L19.5538 27.4026L19.5116 27.6738C19.5573 27.3779 19.7074 27.1081 19.9348 26.9133C20.1622 26.7184 20.4518 26.6114 20.7512 26.6116H23.3336C28.4055 26.6116 32.3766 24.5519 33.5374 18.5932C33.5721 18.4168 33.6012 18.2451 33.6275 18.0771C33.3212 17.9165 33.002 17.7818 32.6732 17.6745C32.587 17.6459 32.5003 17.6187 32.4132 17.5929V17.5929Z" fill="#222D65"/>
<path d="M21.0214 18.1071C21.0614 17.8476 21.1931 17.6111 21.3927 17.4404C21.5922 17.2698 21.8464 17.1764 22.109 17.1772H29.0079C29.8252 17.1772 30.5881 17.2307 31.2843 17.3433C31.7555 17.4174 32.2202 17.5281 32.6741 17.6745C33.0166 17.7881 33.3347 17.9223 33.6284 18.0771C33.9737 15.8748 33.6256 14.3752 32.4348 13.0174C31.122 11.5226 28.7526 10.8826 25.7207 10.8826H16.9188C16.2995 10.8826 15.7712 11.333 15.6755 11.9458L12.0093 35.1845C11.9922 35.2924 11.9987 35.4027 12.0283 35.5079C12.058 35.613 12.11 35.7105 12.1809 35.7936C12.2518 35.8767 12.3398 35.9435 12.439 35.9893C12.5382 36.0351 12.6461 36.0589 12.7553 36.0591H18.1894L19.5538 27.4026L21.0214 18.1071Z" fill="#253B80"/>
<defs>
<linearGradient id="paint0_linear_159044_91" x1="0" y1="24.8826" x2="48" y2="24.8826" gradientUnits="userSpaceOnUse">
<stop stop-color="#00F5A0"/>
<stop offset="1" stop-color="#00D9F5"/>
</linearGradient>
</defs>
</svg>
